<?xml version="1.0" encoding="utf-8"?>
<!-- Generator: Adobe Illustrator 16.0.0, SVG Export Plug-In . SVG Version: 6.00 Build 0)  -->
<!DOCTYPE svg PUBLIC "-//W3C//DTD SVG 1.1//EN" "http://www.w3.org/Graphics/SVG/1.1/DTD/svg11.dtd">
<svg version="1.1" id="Capa_1" xmlns="http://www.w3.org/2000/svg" xmlns:xlink="http://www.w3.org/1999/xlink" x="0px" y="0px"
	 width="22.11px" height="23.045px" viewBox="-1.41 -1.419 22.11 23.045" enable-background="new -1.41 -1.419 22.11 23.045"
	 xml:space="preserve">
<path fill="#A4BAD1" d="M0.249,17.452c-0.32,0.303-0.333,0.807-0.03,1.125c0.151,0.16,0.354,0.242,0.558,0.248
	c0.204,0.006,0.409-0.066,0.568-0.219L7.9,12.385c1.16,0.973,2.642,1.578,4.269,1.621c3.824,0.102,7.02-2.93,7.119-6.755
	c0.101-3.825-2.932-7.019-6.756-7.119c-3.825-0.1-7.021,2.93-7.119,6.755C5.37,8.513,5.896,10.021,6.807,11.23L0.249,17.452z
	 M12.208,12.417c-2.948-0.078-5.282-2.54-5.205-5.485c0.078-2.947,2.539-5.281,5.484-5.204c2.948,0.077,5.282,2.539,5.205,5.485
	C17.614,10.158,15.155,12.493,12.208,12.417z"/>
</svg>
