<?xml version="1.0" encoding="utf-8"?>
<svg width="179.33" height="119.66" viewBox="0 0 179.33 119.66" xmlns="http://www.w3.org/2000/svg">
  <svg version="1" width="179.33" height="119.66" viewBox="0 0 179.33 119.66" id="verified-pages" x="0" y="0" xmlns="http://www.w3.org/2000/svg" transform="matrix(1, 0, 0, 0, 0, 0)">
    <path d="M48.836 97.68c0-1.297 1.681-2.346 3.754-2.346h63.05c2.073 0 3.754 1.049 3.754 2.346 0 1.297-1.681 2.346-3.754 2.346H52.59c-2.074-.003-3.754-1.049-3.754-2.346z" style="fill: rgb(162, 79, 60);"/>
    <path d="M17.497 98.898l32.841-.937h67.364l33.777 1.126-33.587-4.879-66.804.188-2.067-.188z" style="fill: rgb(162, 79, 60);"/>
    <path fill="#DEE0E4" d="M147.634 49.782c0-4.551-4.691-7.178-9.242-7.178-2.156 0-3.377.446-5.396 1.22-.586-3.002-3.847-3.471-6.849-3.471-2.558 0-3.496 1.97-6.053 2.533v-2.417c0-2.885 2.791-4.128 5.582-4.902 2.674-.727 4.27-1.126 7.037-1.126 9.008 0 17.17 6.475 17.17 15.481 0 5.113-1.925 8.585-6.006 11.635-2.559 1.899-4.033 3.94-7.247 3.94h-2.321c-1.313-.258 1.172-1.829 2.252-2.534 2.182-1.453 3.447-2.298 5.535-3.846 3.38-2.532 5.538-5.112 5.538-9.335zM128.681 64.841l-8.162-10.884c-.773 1.291-.47 2.299-.47 3.8.001 4.268 4.361 6.382 8.632 7.084z"/>
    <path fill="#fff" stroke="#4A5066" stroke-width="1.391" stroke-miterlimit="3.864" d="M119.854 26.611l42.086 5.915a3.36 3.36 0 0 1 2.859 3.795l-8.417 59.882a3.357 3.357 0 0 1-3.794 2.857l-35.199-4.945"/>
    <path fill="#4A5066" d="M120.087 77.82l23.764 3.341a.513.513 0 0 1 .436.575.512.512 0 0 1-.575.436l-23.621-3.316-.004-1.036zM120.087 83.25l18.357 2.579a.509.509 0 1 1-.14 1.01l-18.217-2.557V83.25z"/>
    <path fill="none" stroke="#4A5066" stroke-width="1.391" stroke-miterlimit="3.864" d="M120.248 38.64c3.659-3.378 9.009-5.149 14.646-4.357 9.463 1.33 16.154 9.38 14.945 17.979-1.134 8.061-8.803 13.743-17.551 13.331"/>
    <path fill="none" stroke="#4A5066" stroke-width="1.163" stroke-miterlimit="3.864" d="M129.022 65.157c-3.438-.761-6.436-2.414-8.736-4.64"/>
    <path fill="#4A5066" d="M120.087 72.395l19.854 2.789a.51.51 0 0 1-.139 1.012l-19.714-2.77v-1.031h-.001zM130.591 66.518l13.163-9.565a8.29 8.29 0 0 0 1.618-1.67l-8.049-1.132-4.926 3.905a.347.347 0 0 1-.266.07c-.184-.053-.266-.146-.292-.259l-2.763-9.945-3.604 4.38a.368.368 0 0 1-.349.136l-4.842-.682v-.729l4.729.664 3.911-4.738a.376.376 0 0 1 .196-.135.361.361 0 0 1 .441.261l2.853 10.066 4.56-3.628a.354.354 0 0 1 .266-.07l8.517 1.195a8.452 8.452 0 0 0 1.091-3.094 8.317 8.317 0 0 0-1.512-6.121 6.864 6.864 0 0 0-4.607-2.763c-2.435-.301-4.815.347-6.709 1.793a.431.431 0 0 1-.605-.086c-1.788-2.33-3.544-3.598-5.188-3.83a7.906 7.906 0 0 0-5.99 1.603 8.278 8.278 0 0 0-1.944 2.155v-1.03l-.006-.213a8.937 8.937 0 0 1 1.521-1.483 8.643 8.643 0 0 1 6.521-1.746c1.789.251 3.61 1.565 5.478 3.869a9.792 9.792 0 0 1 6.965-1.793c2.123.284 3.972 1.388 5.188 3.063a9.173 9.173 0 0 1-1.771 12.592l-13.725 9.926-10.378-13.275.534-.437 9.974 12.746z"/>
    <path fill="none" stroke="#4A5066" stroke-width=".381" stroke-miterlimit="3.864" d="M130.591 66.518l13.163-9.565a8.29 8.29 0 0 0 1.618-1.67l-8.049-1.132-4.926 3.905a.347.347 0 0 1-.266.07c-.184-.053-.266-.146-.292-.259l-2.763-9.945-3.604 4.38a.368.368 0 0 1-.349.136l-4.842-.682v-.729l4.729.664 3.911-4.738a.376.376 0 0 1 .196-.135.361.361 0 0 1 .441.261l2.853 10.066 4.56-3.628a.354.354 0 0 1 .266-.07l8.517 1.195a8.452 8.452 0 0 0 1.091-3.094 8.317 8.317 0 0 0-1.512-6.121 6.864 6.864 0 0 0-4.607-2.763c-2.435-.301-4.815.347-6.709 1.793a.431.431 0 0 1-.605-.086c-1.788-2.33-3.544-3.598-5.188-3.83a7.906 7.906 0 0 0-5.99 1.603 8.278 8.278 0 0 0-1.944 2.155v-1.03l-.006-.213a8.937 8.937 0 0 1 1.521-1.483 8.643 8.643 0 0 1 6.521-1.746c1.789.251 3.61 1.565 5.478 3.869a9.792 9.792 0 0 1 6.965-1.793c2.123.284 3.972 1.388 5.188 3.063a9.173 9.173 0 0 1-1.771 12.592l-13.725 9.926-10.378-13.275.534-.437 9.974 12.746z"/>
    <path fill="#DCDDDE" d="M120.14 26.743l6.004.75.004 63.432a3.752 3.752 0 0 1-3.752 3.752h-.752c-1.69 0-3.097-.659-3.097-.659s1.595-1.959 1.595-2.343l-.002-64.932z"/>
    <defs>
      <path id="cra" d="M120.14 26.743l6.004.75.004 63.432a3.752 3.752 0 0 1-3.752 3.752h-.752c-1.69 0-3.097-.659-3.097-.659s1.595-1.959 1.595-2.343l-.002-64.932z"/>
    </defs>
    <clipPath id="crb">
      <path d="M 120.14 26.743 L 126.144 27.493 L 126.148 90.925 C 126.148 92.997 124.468 94.677 122.396 94.677 L 121.644 94.677 C 119.954 94.677 118.547 94.018 118.547 94.018 C 118.547 94.018 120.142 92.059 120.142 91.675 L 120.14 26.743 Z"/>
    </clipPath>
    <g clip-path="url(#crb)">
      <path fill="#C2C0C1" d="M17.497 98.898l32.841-.937h67.364l33.777 1.126-33.587-4.879-66.804.188-2.067-.188zM147.634 49.782c0-4.551-4.691-7.178-9.242-7.178-2.156 0-3.377.446-5.396 1.22-.586-3.002-3.847-3.471-6.849-3.471-2.558 0-3.496 1.97-6.053 2.533v-2.417c0-2.885 2.791-4.128 5.582-4.902 2.674-.727 4.27-1.126 7.037-1.126 9.008 0 17.17 6.475 17.17 15.481 0 5.113-1.925 8.585-6.006 11.635-2.559 1.899-4.033 3.94-7.247 3.94h-2.321c-1.313-.258 1.172-1.829 2.252-2.534 2.182-1.453 3.447-2.298 5.535-3.846 3.38-2.532 5.538-5.112 5.538-9.335zM128.681 64.841l-8.162-10.884c-.773 1.291-.47 2.299-.47 3.8.001 4.268 4.361 6.382 8.632 7.084z"/>
      <path fill="none" stroke="#6C6468" stroke-width="1.391" stroke-miterlimit="3.864" d="M119.854 26.611l42.086 5.915a3.36 3.36 0 0 1 2.859 3.795l-8.417 59.882a3.357 3.357 0 0 1-3.794 2.857l-35.199-4.945"/>
      <path fill="#6C6468" d="M120.087 77.82l23.764 3.341a.513.513 0 0 1 .436.575.512.512 0 0 1-.575.436l-23.621-3.316-.004-1.036zM120.087 83.25l18.357 2.579a.509.509 0 1 1-.14 1.01l-18.217-2.557V83.25z"/>
      <path fill="none" stroke="#6C6468" stroke-width="1.391" stroke-miterlimit="3.864" d="M120.248 38.64c3.659-3.378 9.009-5.149 14.646-4.357 9.463 1.33 16.154 9.38 14.945 17.979-1.134 8.061-8.803 13.743-17.551 13.331"/>
      <path fill="none" stroke="#6C6468" stroke-width="1.163" stroke-miterlimit="3.864" d="M129.022 65.157c-3.438-.761-6.436-2.414-8.736-4.64"/>
      <path fill="#6C6468" d="M120.087 72.395l19.854 2.789a.51.51 0 0 1-.139 1.012l-19.714-2.77v-1.031h-.001zM130.591 66.518l13.163-9.565a8.29 8.29 0 0 0 1.618-1.67l-8.049-1.132-4.926 3.905a.347.347 0 0 1-.266.07c-.184-.053-.266-.146-.292-.259l-2.763-9.945-3.604 4.38a.368.368 0 0 1-.349.136l-4.842-.682v-.729l4.729.664 3.911-4.738a.376.376 0 0 1 .196-.135.361.361 0 0 1 .441.261l2.853 10.066 4.56-3.628a.354.354 0 0 1 .266-.07l8.517 1.195a8.452 8.452 0 0 0 1.091-3.094 8.317 8.317 0 0 0-1.512-6.121 6.864 6.864 0 0 0-4.607-2.763c-2.435-.301-4.815.347-6.709 1.793a.431.431 0 0 1-.605-.086c-1.788-2.33-3.544-3.598-5.188-3.83a7.906 7.906 0 0 0-5.99 1.603 8.278 8.278 0 0 0-1.944 2.155v-1.03l-.006-.213a8.937 8.937 0 0 1 1.521-1.483 8.643 8.643 0 0 1 6.521-1.746c1.789.251 3.61 1.565 5.478 3.869a9.792 9.792 0 0 1 6.965-1.793c2.123.284 3.972 1.388 5.188 3.063a9.173 9.173 0 0 1-1.771 12.592l-13.725 9.926-10.378-13.275.534-.437 9.974 12.746z"/>
      <path fill="none" stroke="#6C6468" stroke-width=".381" stroke-miterlimit="3.864" d="M130.591 66.518l13.163-9.565a8.29 8.29 0 0 0 1.618-1.67l-8.049-1.132-4.926 3.905a.347.347 0 0 1-.266.07c-.184-.053-.266-.146-.292-.259l-2.763-9.945-3.604 4.38a.368.368 0 0 1-.349.136l-4.842-.682v-.729l4.729.664 3.911-4.738a.376.376 0 0 1 .196-.135.361.361 0 0 1 .441.261l2.853 10.066 4.56-3.628a.354.354 0 0 1 .266-.07l8.517 1.195a8.452 8.452 0 0 0 1.091-3.094 8.317 8.317 0 0 0-1.512-6.121 6.864 6.864 0 0 0-4.607-2.763c-2.435-.301-4.815.347-6.709 1.793a.431.431 0 0 1-.605-.086c-1.788-2.33-3.544-3.598-5.188-3.83a7.906 7.906 0 0 0-5.99 1.603 8.278 8.278 0 0 0-1.944 2.155v-1.03l-.006-.213a8.937 8.937 0 0 1 1.521-1.483 8.643 8.643 0 0 1 6.521-1.746c1.789.251 3.61 1.565 5.478 3.869a9.792 9.792 0 0 1 6.965-1.793c2.123.284 3.972 1.388 5.188 3.063a9.173 9.173 0 0 1-1.771 12.592l-13.725 9.926-10.378-13.275.534-.437 9.974 12.746z"/>
    </g>
    <path fill="#fff" stroke="#4A5066" stroke-width="1.391" stroke-miterlimit="3.864" d="M50.018 94.021L14.95 98.949a3.36 3.36 0 0 1-3.795-2.86L2.739 36.208a3.36 3.36 0 0 1 2.858-3.795l42.479-5.97"/>
    <path stroke-width="1.391" stroke-miterlimit="3.864" d="M 106.754 14.076 L 51.992 14.076 C 49.774 14.076 47.975 15.875 47.976 18.093 L 47.976 90.376 C 47.975 92.594 49.774 94.393 51.992 94.393 L 116.243 94.393 C 118.462 94.394 120.261 92.595 120.261 90.376 L 120.468 24.09 C 112.093 26.611 106.754 21.827 106.754 14.076 Z" fill="#fff" stroke="#4A5066"/>
    <path fill="#DEE0E4" d="M 67.508 48.984 C 67.555 48.679 67.696 48.445 67.696 48.117 L 67.696 42.159 C 67.696 40.916 68.68 40.493 69.573 39.602 C 68.965 38.664 67.602 38.57 67.602 37.444 C 67.602 36.506 68.469 35.849 69.408 35.849 L 71.237 35.849 C 72.341 35.849 72.175 34.395 72.67 33.41 C 73.633 31.487 74.478 29.845 76.609 29.47 C 79.588 28.953 81.324 29.282 84.349 29.282 C 88.548 29.282 91.199 28.624 95.092 30.313 C 97.201 31.228 96.075 33.902 97.53 35.662 C 98.703 37.069 101.846 35.708 101.846 37.538 C 101.846 38.641 100.883 38.969 100.157 39.79 C 102.057 41.503 102.315 43.449 102.315 46.006 L 102.315 48.797 C 105.27 46.123 105.223 43.003 105.223 39.039 C 105.223 32.472 102.409 27.546 96.494 24.59 C 92.462 22.573 90.14 20.65 85.658 20.65 C 74.47 20.65 63.47 27.664 63.47 38.852 C 63.473 43.143 64.081 46.427 67.508 48.984 Z M 74.167 53.511 C 74.167 52.808 74.706 52.174 75.41 52.174 L 77.71 52.174 C 81.649 52.174 83.88 52.737 87.817 52.737 C 90.678 52.737 92.321 52.737 95.184 52.267 L 95.184 54.964 C 95.184 56.608 92.979 56.35 91.43 56.864 C 88.616 57.802 86.951 58.459 83.971 58.459 C 81.062 58.459 79.233 58.553 76.606 57.333 C 75.551 56.841 74.167 56.747 74.167 55.574 L 74.167 53.511 Z"/>
    <path fill="#4A5066" d="M100.759 39.776a2.21 2.21 0 0 0-.613-4.335h-2.209l-1.105-3.316c-1.104-3.316-4.422-3.316-4.422-3.316H76.936s-3.316 0-4.422 3.316l-1.105 3.316h-2.211a2.21 2.21 0 0 0-.612 4.335 4.412 4.412 0 0 0-1.598 3.402v6.633c0 .634.405 1.147 1.105 1.562v5.07c0 .609.494 1.104 1.104 1.104h4.422c.611 0 1.105-.495 1.105-1.104v-3.595c3.299.278 7.047.278 9.949.278 2.899 0 6.647 0 9.947-.278v3.595c0 .609.493 1.104 1.104 1.104h4.422c.607 0 1.104-.495 1.104-1.104v-5.07c.7-.414 1.105-.928 1.105-1.562v-6.633a4.424 4.424 0 0 0-1.596-3.402zm-.613-3.229a1.105 1.105 0 0 1 0 2.21H99.04l-.736-2.211 1.842.001zm-26.588-4.073c.347-1.035 1-1.804 2.006-2.236.367-.158.958-.324 1.367-.324h15.474c.41 0 .998.166 1.367.324 1.006.433 1.66 1.201 2.004 2.236l2.096 6.283h-1.637c-.766-1.322-2.133-2.128-3.771-2.128-1.637 0-3.122.806-3.889 2.128H71.464l2.094-6.283zm21.321 6.284h-4.94a3.297 3.297 0 0 1 2.471-1.105c.982 0 1.861.426 2.469 1.105zm-26.79-1.106c0-.61.494-1.105 1.104-1.105h1.843l-.736 2.211h-1.105a1.106 1.106 0 0 1-1.106-1.106zm5.524 18.791h-4.419v-4.571c1.165.409 2.708.688 4.422.873l-.003 3.698zm26.533 0h-4.422v-3.698c1.715-.188 3.258-.464 4.422-.873v4.571zm1.103-6.632a.263.263 0 0 1-.014.089c-.211.693-2.412 1.224-3.004 1.347-2.285.478-4.813.616-7.146.696-2.142.075-4.278.079-6.42.079-2.142 0-4.278-.004-6.419-.079-2.331-.08-4.859-.219-7.146-.696-.592-.123-2.794-.653-3.005-1.347a.291.291 0 0 1-.015-.089v-6.633a3.313 3.313 0 0 1 3.315-3.313H97.922a3.313 3.313 0 0 1 3.313 3.313v6.633h.014zM86.881 31.019h-4.423c-.607 0-1.104.497-1.104 1.105v1.105c0 .609.497 1.105 1.104 1.105h4.423c.606 0 1.104-.497 1.104-1.105v-1.105a1.11 1.11 0 0 0-1.104-1.105zm0 2.211h-4.423v-1.105h4.423v1.105zm2.763 9.948h-9.949a.554.554 0 0 0 0 1.106h9.949a.552.552 0 1 0 0-1.106zm0 2.211h-9.949a.554.554 0 0 0 0 1.106h9.949a.553.553 0 1 0 0-1.106zm0 2.211h-9.949a.554.554 0 0 0 0 1.106h9.949a.553.553 0 1 0 0-1.106zm6.08-5.527c-1.832 0-3.315 1.484-3.315 3.316a3.314 3.314 0 1 0 6.629 0 3.313 3.313 0 0 0-3.314-3.316zm0 5.527a2.21 2.21 0 1 1 0-4.422 2.21 2.21 0 1 1 0 4.422zm-22.111-5.527c-1.831 0-3.314 1.484-3.314 3.316a3.314 3.314 0 1 0 6.63 0 3.315 3.315 0 0 0-3.316-3.316zm0 5.527a2.21 2.21 0 1 1-.001-4.421 2.21 2.21 0 0 1 .001 4.421z"/>
    <path fill="#4A5066" d="M65.605 75.88l37.315-.004a.606.606 0 0 0 .606-.608.607.607 0 0 0-.606-.609H65.564a.61.61 0 0 0-.61.609c0 .375.307.67.651.612zM71.229 82.303L97.3 82.3a.607.607 0 1 0 0-1.216H71.187a.61.61 0 0 0-.609.608c-.002.372.304.671.651.611z"/>
    <path fill="none" stroke="#4A5066" stroke-width="1.391" stroke-miterlimit="3.864" d="M95.164 55.573c-3.108 1.698-6.752 2.677-10.646 2.677-3.732 0-7.253-.898-10.28-2.473M68.639 51.496c-3.038-3.262-4.802-7.46-4.802-12.042 0-10.381 9.26-18.797 20.682-18.797 11.423 0 20.684 8.416 20.684 18.797 0 3.71-1.185 7.169-3.226 10.082"/>
    <path fill="#4A5066" d="M71.229 69.455L97.3 69.45a.609.609 0 0 0 0-1.217H71.187c-.293 0-.609.231-.609.607s.304.674.651.615z"/>
    <path fill="#4A5066" d="M24.07 82.025c-.28.092-.565-.12-.609-.433a.506.506 0 0 1 .436-.575L48.209 77.6v1.03L24.07 82.025zM29.477 86.693c-.281.092-.567-.119-.61-.432a.509.509 0 0 1 .437-.576l18.903-2.658v1.031l-18.73 2.635z"/>
    <path fill="#DEE0E4" d="M 45.185 61.458 C 44.247 58.62 43.778 56.906 43.778 53.929 L 43.778 51.7 L 42.558 45.038 L 42.558 41.966 C 42.558 40.042 42.393 38.752 41.337 37.157 C 41.009 36.641 40.327 37.063 39.74 36.875 C 38.757 36.523 39.085 35.304 39.085 34.249 C 39.085 34.014 39.318 33.873 39.555 33.873 C 41.103 33.873 41.618 35.187 43.118 35.562 C 45.301 36.102 47.209 36.571 47.209 38.8 L 47.24 59.584 C 47.241 61.297 46.756 60.824 45.185 61.458 Z M 29.048 63.803 C 29.048 62.795 28.297 58.385 27.922 56.579 C 26.632 50.293 25.669 46.68 25.669 40.254 C 25.669 39.339 26.632 38.94 27.546 38.847 C 27.546 38.682 27.641 38.565 27.641 38.401 C 27.641 37.463 27.266 36.97 27.266 36.032 C 27.122 36.009 27.054 35.844 26.89 35.844 C 25.13 35.844 24.733 37.603 23.325 38.659 C 19.313 41.661 18.166 45.461 18.166 50.48 C 18.162 57.141 23.018 60.801 29.048 63.803 Z"/>
    <path fill="none" stroke="#4A5066" stroke-width="1.391" stroke-miterlimit="3.864" d="M47.904 60.313c-2.633 2.543-6.172 4.34-10.218 4.907-9.463 1.33-18.114-4.563-19.323-13.164-.87-6.194 2.323-12.099 7.759-15.421M39.926 34.312c3.008.655 5.726 2.047 7.879 3.985"/>
    <path fill="#4A5066" d="M27.979 76.051c-.28.09-.567-.121-.611-.433a.512.512 0 0 1 .437-.577l20.4-2.867v1.03l-20.226 2.847z"/>
    <g fill="none">
      <path d="M45.257 62.622l-3.578-25.104a.504.504 0 0 0-.567-.428l-1.752.245-.618-4.066a.503.503 0 0 0-.565-.428l-10.729 1.508a.505.505 0 0 0-.429.567l.619 4.067-1.657.233a.505.505 0 0 0-.428.568l3.503 24.921"/>
      <path stroke="#4A5066" stroke-width="1.391" stroke-miterlimit="3.864" d="M45.257 62.622l-3.578-25.104a.504.504 0 0 0-.567-.428l-1.752.245-.618-4.066a.503.503 0 0 0-.565-.428l-10.729 1.508a.505.505 0 0 0-.429.567l.619 4.067-1.657.233a.505.505 0 0 0-.428.568l3.503 24.921"/>
    </g>
    <path fill="#4A5066" d="M38.095 42.504a.503.503 0 0 0-.996.14l.607 4.334a.503.503 0 0 0 .996-.139l-.607-4.335zM34.729 42.976a.504.504 0 0 0-.567-.428.504.504 0 0 0-.428.568l.608 4.335c.039.273.294.466.567.428s.467-.294.429-.567l-.609-4.336zM31.363 43.45a.505.505 0 0 0-.566-.429.508.508 0 0 0-.431.568l.61 4.335a.502.502 0 1 0 .995-.139l-.608-4.335zM39.047 49.273a.502.502 0 0 0-.995.139l.606 4.336a.504.504 0 0 0 .568.429.505.505 0 0 0 .428-.568l-.607-4.336zM35.681 49.746a.506.506 0 0 0-.568-.428.505.505 0 0 0-.429.567l.609 4.337a.503.503 0 0 0 .994-.139l-.606-4.337zM32.313 50.219a.503.503 0 0 0-.995.139l.609 4.336a.505.505 0 0 0 .565.429.507.507 0 0 0 .43-.569l-.609-4.335zM39.997 56.043a.504.504 0 0 0-.995.138l.607 4.336a.51.51 0 0 0 .569.43.507.507 0 0 0 .428-.568l-.609-4.336zM36.633 56.518a.503.503 0 0 0-.996.134l.607 4.339a.504.504 0 0 0 .568.427.501.501 0 0 0 .427-.566l-.606-4.334zM33.267 56.989a.505.505 0 0 0-.568-.429.506.506 0 0 0-.428.567l.609 4.335a.501.501 0 0 0 .994-.137l-.607-4.336z"/>
    <g>
      <path fill="#4A5066" d="M33.214 33.362l-.373-2.434a.51.51 0 0 0-1.012.14l.376 2.47a.51.51 0 0 0 .575.435c.312-.044.523-.33.434-.611z"/>
    </g>
    <g>
      <path fill="none" stroke="#4A5066" stroke-width="1.391" stroke-miterlimit="3.864" d="M111.724 16.121s2.793 2.83 3.938 3.472c.635.354 9.01-10.978 9.01-10.978"/>
    </g>
    <g>
      <path fill="none" stroke="#4A5066" stroke-width="1.391" stroke-miterlimit="3.864" d="M125.343 12.313c.295.919.454 1.899.454 2.916 0 5.26-4.267 9.524-9.522 9.524-5.26 0-9.521-4.265-9.521-9.524 0-5.259 4.263-9.523 9.521-9.523 1.748 0 3.347.473 4.789 1.296"/>
    </g>
    <g>
      <path fill="none" stroke="#4A5066" stroke-width="1.391" stroke-miterlimit="3.864" d="M26.975 39.087l12.666-1.784"/>
    </g>
  </svg>
</svg>